<svg width="16" height="16" viewBox="0 0 16 16" fill="none" xmlns="http://www.w3.org/2000/svg">
<g id="Group">
<path id="Vector" d="M10 2.66665H3.33333V13.3333H12.6667V5.33331H10V2.66665ZM2 1.99465C2 1.62931 2.298 1.33331 2.666 1.33331H10.6667L14 4.66665V13.9953C14.0006 14.0829 13.984 14.1697 13.951 14.2508C13.9181 14.3319 13.8695 14.4057 13.808 14.4681C13.7466 14.5304 13.6734 14.58 13.5928 14.6141C13.5121 14.6482 13.4255 14.666 13.338 14.6666H2.662C2.48692 14.6654 2.31934 14.5954 2.19548 14.4716C2.07161 14.3479 2.0014 14.1804 2 14.0053V1.99465ZM7.33333 7.33331H8.66667V11.3333H7.33333V7.33331ZM7.33333 4.66665H8.66667V5.99998H7.33333V4.66665Z" fill="#201E29"/>
</g>
</svg>
