<svg width="12" height="12" viewBox="0 0 12 12" fill="none" xmlns="http://www.w3.org/2000/svg">
<g id="Group">
<path id="Vector" d="M2.7315 2.2165C3.63878 1.43033 4.79949 0.998322 6 0.999997C8.7615 0.999997 11 3.2385 11 6C11 7.068 10.665 8.058 10.095 8.87L8.5 6H10C10.0001 5.21581 9.76962 4.4489 9.33733 3.79463C8.90504 3.14035 8.28997 2.62758 7.56859 2.32006C6.84721 2.01254 6.05136 1.92385 5.27998 2.06501C4.5086 2.20616 3.79573 2.57095 3.23 3.114L2.7315 2.2165ZM9.2685 9.7835C8.36122 10.5697 7.20051 11.0017 6 11C3.2385 11 1 8.7615 1 6C1 4.932 1.335 3.942 1.905 3.13L3.5 6H2C1.99994 6.78419 2.23038 7.5511 2.66267 8.20537C3.09496 8.85964 3.71003 9.37242 4.43141 9.67994C5.15279 9.98745 5.94864 10.0761 6.72002 9.93499C7.4914 9.79383 8.20427 9.42905 8.77 8.886L9.2685 9.7835Z" fill="#0968F5"/>
</g>
</svg>
