<svg width="17" height="16" viewBox="0 0 17 16" fill="none" xmlns="http://www.w3.org/2000/svg">
<rect x="1" y="0.5" width="15" height="15" rx="7.5" stroke="#0063F7"/>
<g  clip-path="url(#clip0_394_1557)">
<path d="M4.5 7.2C4.06 7.2 3.7 7.56 3.7 8C3.7 8.44 4.06 8.8 4.5 8.8C4.94 8.8 5.3 8.44 5.3 8C5.3 7.56 4.94 7.2 4.5 7.2ZM12.5 7.2C12.06 7.2 11.7 7.56 11.7 8C11.7 8.44 12.06 8.8 12.5 8.8C12.94 8.8 13.3 8.44 13.3 8C13.3 7.56 12.94 7.2 12.5 7.2ZM8.5 7.2C8.06 7.2 7.7 7.56 7.7 8C7.7 8.44 8.06 8.8 8.5 8.8C8.94 8.8 9.3 8.44 9.3 8C9.3 7.56 8.94 7.2 8.5 7.2Z" fill="#0063F7"/>
</g>
<defs>
<clipPath id="clip0_394_1557">
<rect width="12.8" height="12.8" fill="white" transform="translate(2.1 1.6)"/>
</clipPath>
</defs>
</svg>
