<svg width="16" height="16" viewBox="0 0 16 16" fill="none" xmlns="http://www.w3.org/2000/svg">
<g id="Group">
<path id="Vector" d="M7.99999 11.5555C7.057 11.5555 6.15263 11.1809 5.48583 10.5142C4.81904 9.84736 4.44444 8.94299 4.44444 7.99999C4.44444 7.057 4.81904 6.15263 5.48583 5.48584C6.15263 4.81904 7.057 4.44444 7.99999 4.44444C8.94298 4.44444 9.84735 4.81904 10.5141 5.48584C11.1809 6.15263 11.5555 7.057 11.5555 7.99999C11.5555 8.94299 11.1809 9.84736 10.5141 10.5142C9.84735 11.1809 8.94298 11.5555 7.99999 11.5555ZM7.99999 10.3704C8.62865 10.3704 9.23156 10.1206 9.6761 9.6761C10.1206 9.23157 10.3704 8.62866 10.3704 7.99999C10.3704 7.37133 10.1206 6.76842 9.6761 6.32389C9.23156 5.87936 8.62865 5.62962 7.99999 5.62962C7.37133 5.62962 6.76842 5.87936 6.32389 6.32389C5.87935 6.76842 5.62962 7.37133 5.62962 7.99999C5.62962 8.62866 5.87935 9.23157 6.32389 9.6761C6.76842 10.1206 7.37133 10.3704 7.99999 10.3704ZM7.4074 1.48148H8.59258V3.25925H7.4074V1.48148ZM7.4074 12.7407H8.59258V14.5185H7.4074V12.7407ZM2.97184 3.80977L3.80977 2.97185L5.06666 4.22874L4.22873 5.06666L2.97184 3.81036V3.80977ZM10.9333 11.7713L11.7712 10.9333L13.0281 12.1902L12.1902 13.0281L10.9333 11.7713ZM12.1902 2.97125L13.0281 3.80977L11.7712 5.06666L10.9333 4.22874L12.1902 2.97185V2.97125ZM4.22873 10.9333L5.06666 11.7713L3.80977 13.0281L2.97184 12.1902L4.22873 10.9333ZM14.5185 7.4074V8.59259H12.7407V7.4074H14.5185ZM3.25925 7.4074V8.59259H1.48147V7.4074H3.25925Z" fill="#4E4B66"/>
</g>
</svg>
