<svg width="17" height="16" viewBox="0 0 17 16" fill="none" xmlns="http://www.w3.org/2000/svg">
<g id="Group">
<path id="Vector" d="M8.13326 1.33333C11.4453 1.33333 14.1333 4.02133 14.1333 7.33333C14.1333 10.6453 11.4453 13.3333 8.13326 13.3333C4.82126 13.3333 2.13326 10.6453 2.13326 7.33333C2.13326 4.02133 4.82126 1.33333 8.13326 1.33333ZM8.13326 12C10.7113 12 12.7999 9.91133 12.7999 7.33333C12.7999 4.75467 10.7113 2.66667 8.13326 2.66667C5.55459 2.66667 3.46659 4.75467 3.46659 7.33333C3.46659 9.91133 5.55459 12 8.13326 12ZM13.7899 12.0473L15.6759 13.9327L14.7326 14.876L12.8473 12.99L13.7899 12.0473Z" fill="#6C688D"/>
</g>
</svg>
